<?xml version="1.0" standalone="no"?><!DOCTYPE svg PUBLIC "-//W3C//DTD SVG 1.1//EN" "http://www.w3.org/Graphics/SVG/1.1/DTD/svg11.dtd"><svg t="1515218615314" class="icon" style="" viewBox="0 0 1024 1024" version="1.1" xmlns="http://www.w3.org/2000/svg" p-id="3004" xmlns:xlink="http://www.w3.org/1999/xlink" width="200" height="200"><defs><style type="text/css"></style></defs><path d="M794.451 918.358l-215.029-148.823 215.029 0.002z" p-id="3005" fill="#515151"></path><path d="M883.86 96.054h-742.582c-34.035 0-61.882 27.847-61.882 61.882v549.717c0 34.035 27.847 61.882 61.882 61.882h742.582c34.035 0 61.882-27.847 61.882-61.882v-549.717c-0.001-34.035-27.847-61.882-61.882-61.882zM815.789 552.054c0 25.526-20.885 46.412-46.412 46.412h-513.619c-25.526 0-46.412-20.885-46.412-46.412v0c0-25.526 20.885-46.412 46.412-46.412h513.619c25.526 0.001 46.412 20.885 46.412 46.412v0zM815.789 313.534c0 25.526-20.885 46.412-46.412 46.412h-513.619c-25.526 0-46.412-20.885-46.412-46.412v0c0-25.526 20.885-46.412 46.412-46.412h513.619c25.526 0 46.412 20.885 46.412 46.412v0z" p-id="3006" fill="#515151"></path></svg>