<?xml version="1.0" standalone="no"?><!DOCTYPE svg PUBLIC "-//W3C//DTD SVG 1.1//EN" "http://www.w3.org/Graphics/SVG/1.1/DTD/svg11.dtd"><svg t="1515218652892" class="icon" style="" viewBox="0 0 1024 1024" version="1.1" xmlns="http://www.w3.org/2000/svg" p-id="4407" xmlns:xlink="http://www.w3.org/1999/xlink" width="200" height="200"><defs><style type="text/css"></style></defs><path d="M556.251429 150.77181h-2.048c-42.422857 0-79.676952 36.035048-79.676953 77.141333v19.846095c0 86.332952-57.465905 153.404952-137.581714 166.253714V845.531429h370.761143c34.718476 0 65.487238-23.844571 74.703238-57.758477l82.773333-289.03619a79.213714 79.213714 0 0 0-13.043809-69.193143 75.897905 75.897905 0 0 0-60.952381-30.817524h-163.718096c5.583238-12.263619 8.94781-24.502857 9.70362-31.427047l2.535619-10.678858a248.100571 248.100571 0 0 0-5.705143-139.434666l-5.046857-13.945905a77.482667 77.482667 0 0 0-72.704-52.467809zM297.447619 416.402286H233.20381c-41.22819 0-77.433905 38.570667-77.433905 82.505143v269.190095a77.531429 77.531429 0 0 0 77.433905 77.458286H297.447619V416.402286z" fill="#515151" p-id="4408"></path></svg>